<?xml version="1.0" standalone="no"?>
<!DOCTYPE svg PUBLIC "-//W3C//DTD SVG 20010904//EN"
 "http://www.w3.org/TR/2001/REC-SVG-20010904/DTD/svg10.dtd">
<svg version="1.0" xmlns="http://www.w3.org/2000/svg"
 width="50.000000pt" height="50.000000pt" viewBox="0 0 50.000000 50.000000"
 preserveAspectRatio="xMidYMid meet">

<g transform="translate(0.000000,50.000000) scale(0.100000,-0.100000)"
fill="#000000" stroke="none">
<path d="M53 339 c25 -15 25 -173 0 -188 -14 -8 -5 -10 37 -10 39 1 48 3 30 8
-24 7 -25 10 -28 98 l-3 92 28 4 c15 2 3 5 -27 5 -42 1 -51 -1 -37 -9z"/>
<path d="M280 330 c11 -11 23 -20 28 -20 4 -1 36 -40 72 -88 l65 -86 3 94 c2
75 6 98 19 108 14 10 10 12 -28 11 -24 -1 -36 -3 -27 -6 23 -6 30 -35 26 -103
l-3 -53 -63 81 c-49 63 -69 82 -88 82 l-24 0 20 -20z"/>
<path d="M177 316 c24 -21 28 -31 27 -75 0 -35 -6 -57 -20 -72 l-19 -22 23 12
c36 19 56 75 42 117 -12 34 -43 64 -68 64 -7 0 0 -11 15 -24z"/>
<path d="M278 159 c-17 -18 -17 -19 22 -19 l40 0 -20 20 c-23 23 -20 23 -42
-1z"/>
</g>
</svg>
